<?xml version="1.0" standalone="no"?>
<!DOCTYPE svg PUBLIC "-//W3C//DTD SVG 20010904//EN"
 "http://www.w3.org/TR/2001/REC-SVG-20010904/DTD/svg10.dtd">
<svg version="1.0" xmlns="http://www.w3.org/2000/svg"
 width="700.000000pt" height="700.000000pt" viewBox="0 0 700.000000 700.000000"
 preserveAspectRatio="xMidYMid meet">
<metadata>
Created by potrace 1.14, written by Peter Selinger 2001-2017
</metadata>
<g transform="translate(0.000000,700.000000) scale(0.100000,-0.100000)"
fill="#000000" stroke="none">
<path d="M2980 6803 c-184 -81 -338 -150 -341 -155 -3 -5 -5 -21 -4 -36 1 -21
11 -33 46 -52 126 -70 168 -137 195 -310 7 -49 14 -1440 7 -1440 -3 0 -17 8
-31 19 -46 32 -215 109 -309 140 -109 37 -189 55 -345 76 -37 6 -297 6 -343 1
-227 -25 -440 -84 -605 -166 -126 -63 -157 -81 -247 -149 -355 -265 -590 -688
-641 -1151 -14 -133 -7 -416 13 -520 3 -14 8 -41 11 -60 35 -206 169 -503 304
-674 157 -200 404 -379 630 -456 182 -62 458 -86 620 -54 263 51 552 219 825
479 39 37 82 78 96 91 l26 24 0 -198 c-1 -209 5 -243 47 -290 44 -50 69 -53
389 -53 270 -1 297 -2 298 -17 4 -85 -1 -1182 -6 -1245 -13 -174 -27 -244 -64
-329 -24 -53 -97 -122 -147 -138 -31 -10 -34 -15 -34 -50 0 -21 5 -40 13 -42
10 -3 958 -2 978 1 7 1 5 69 -2 75 -2 2 -27 15 -55 29 -107 54 -143 127 -180
367 -8 56 -13 1440 -5 1440 3 0 20 -9 36 -20 57 -38 200 -108 295 -143 220
-82 415 -113 644 -104 77 4 155 9 171 12 17 3 67 12 112 20 129 24 235 60 386
133 398 190 704 583 828 1062 12 49 14 57 29 141 26 140 35 441 17 584 -28
234 -108 501 -191 634 -12 20 -25 43 -29 52 -8 25 -104 157 -146 202 -175 191
-358 304 -590 364 -425 108 -905 -11 -1417 -353 l-151 -100 0 227 0 228 -24
20 c-13 11 -28 20 -32 21 -5 0 -157 -66 -339 -146 -181 -80 -332 -143 -335
-140 -3 3 -5 511 -5 1128 0 1122 0 1123 -21 1146 -11 12 -25 22 -31 22 -6 0
-162 -67 -346 -147z m-1055 -1877 c150 -10 317 -67 460 -159 97 -62 186 -136
253 -211 112 -125 170 -222 219 -363 l27 -78 1 -792 2 -793 -66 -62 c-170
-162 -339 -264 -536 -324 -81 -24 -106 -27 -250 -28 -160 -1 -191 2 -296 29
-150 39 -315 134 -435 252 -183 178 -304 401 -404 738 -9 32 -46 217 -55 275
-26 180 -26 508 0 624 3 11 7 33 9 47 2 14 14 60 25 101 103 367 328 612 649
708 85 25 109 29 207 37 44 3 82 7 83 9 2 1 9 1 15 -1 7 -2 48 -6 92 -9z
m3232 -211 c376 -43 659 -272 842 -682 42 -92 101 -262 116 -329 33 -153 45
-216 50 -254 4 -25 8 -56 10 -70 19 -132 25 -412 12 -555 -11 -122 -16 -152
-42 -256 -100 -403 -312 -639 -656 -730 -69 -19 -111 -23 -234 -23 -160 -1
-194 3 -295 32 -339 100 -658 375 -789 682 -56 130 -54 91 -56 982 l-2 827 91
66 c50 36 105 74 121 83 17 9 32 19 35 22 19 19 167 93 255 128 111 43 210 68
320 78 33 4 61 7 62 8 3 3 107 -3 160 -9z m-1658 -221 c43 -37 85 -112 96
-171 3 -16 7 -38 9 -50 15 -72 18 -305 18 -1243 -1 -575 -1 -1052 -1 -1062 -1
-14 -5 -15 -32 -5 -83 31 -154 130 -178 247 -17 89 -20 110 -26 215 -5 76 -10
1940 -6 2112 l1 31 38 -18 c20 -10 57 -35 81 -56z"/>
</g>
</svg>
